<svg id="SvgjsSvg1011" width="288" height="288" xmlns="http://www.w3.org/2000/svg" version="1.1" xmlns:xlink="http://www.w3.org/1999/xlink" xmlns:svgjs="http://svgjs.com/svgjs"><defs id="SvgjsDefs1012"></defs><g id="SvgjsG1013"><svg xmlns="http://www.w3.org/2000/svg" viewBox="0 0 48 48" width="288" height="288"><path d="M42 3H6c-1.103 0-2 .897-2 2v3c0 1.103.897 2 2 2h12v4.039c0 .916.41 1.77 1.126 2.343l3.273 2.619h-2.399c-1.103 0-2 .897-2 2v2c0 1.103.897 2 2 2h8c1.103 0 2-.897 2-2v-2c0-1.103-.897-2-2-2h-2.399l3.273-2.619c.716-.573 1.126-1.427 1.126-2.343v-4.039h12c1.103 0 2-.897 2-2v-3c0-1.103-.897-2-2-2zM28.001 23h-8.001v-2h8v2zM20 14.039v-4.039h3v6.919l-2.624-2.099c-.239-.191-.376-.476-.376-.781zM28 14.039c0 .305-.137.59-.376.781l-2.624 2.099v-6.919h3v4.039zM6 8v-3h36v3s-36 0-36 0zM24 27c-.553 0-1 .448-1 1v2c0 .552.447 1 1 1s1-.448 1-1v-2c0-.552-.447-1-1-1zM24 34c-.553 0-1 .448-1 1v2c0 .552.447 1 1 1s1-.448 1-1v-2c0-.552-.447-1-1-1zM24 41c-.553 0-1 .448-1 1v2c0 .552.447 1 1 1s1-.448 1-1v-2c0-.552-.447-1-1-1zM19.643 27.234c-.423-.355-1.054-.3-1.409.123l-1.286 1.532c-.355.423-.3 1.054.123 1.409s1.054.3 1.409-.123l1.286-1.532c.355-.423.3-1.054-.123-1.409zM15.144 32.596c-.423-.355-1.054-.3-1.409.123l-1.286 1.532c-.355.423-.3 1.054.123 1.409s1.054.3 1.409-.123l1.286-1.532c.355-.423.3-1.054-.123-1.409zM10.644 37.959c-.423-.355-1.054-.3-1.409.123l-1.286 1.532c-.355.423-.3 1.054.123 1.409s1.054.3 1.409-.123l1.286-1.532c.355-.423.3-1.054-.123-1.409zM28.357 27.234c-.423.355-.478.986-.123 1.409l1.286 1.532c.355.423.985.479 1.409.123s.478-.986.123-1.409l-1.286-1.532c-.355-.423-.985-.479-1.409-.123zM32.856 32.596c-.423.355-.478.986-.123 1.409l1.286 1.532c.355.423.985.479 1.409.123s.478-.986.123-1.409l-1.286-1.532c-.355-.423-.985-.479-1.409-.123zM37.356 37.959c-.423.355-.478.986-.123 1.409l1.286 1.532c.355.423.985.479 1.409.123s.478-.986.123-1.409l-1.286-1.532c-.355-.423-.985-.479-1.409-.123z" fill="#ffffff" class="color000 svgShape"></path></svg></g></svg>