<!DOCTYPE svg PUBLIC "-//W3C//DTD SVG 1.1//EN" "http://www.w3.org/Graphics/SVG/1.1/DTD/svg11.dtd">
<!-- Uploaded to: SVG Repo, www.svgrepo.com, Transformed by: SVG Repo Mixer Tools -->
<svg fill="#ffffff" height="800px" width="800px" version="1.1" id="Capa_1" xmlns="http://www.w3.org/2000/svg" xmlns:xlink="http://www.w3.org/1999/xlink" viewBox="0 0 295.001 295.001" xml:space="preserve" stroke="#ffffff">
<g id="SVGRepo_bgCarrier" stroke-width="0"/>
<g id="SVGRepo_tracerCarrier" stroke-linecap="round" stroke-linejoin="round"/>
<g id="SVGRepo_iconCarrier"> <g> <path id="rect29104" d="M67.5,0c-13.764,0-25,11.236-25,25v260h-35c-2.761-0.039-5.032,2.168-5.071,4.929 c-0.039,2.761,2.168,5.032,4.929,5.071c0.047,0.001,0.094,0.001,0.141,0h280c2.761,0.039,5.032-2.168,5.071-4.929 c0.039-2.761-2.168-5.032-4.929-5.071c-0.047-0.001-0.094-0.001-0.141,0h-35V25c0-13.764-11.236-25-25-25H67.5z M67.5,10h160 c8.396,0,15,6.604,15,15v260h-190V25C52.5,16.604,59.104,10,67.5,10z M182.5,17.5c-1.381-0.02-2.516,1.084-2.535,2.465 s1.084,2.516,2.465,2.535c0.024,0,0.047,0,0.071,0H230V100c-0.02,1.381,1.084,2.516,2.465,2.535 c1.381,0.02,2.516-1.084,2.535-2.465c0-0.024,0-0.047,0-0.071V20c0-1.381-1.119-2.5-2.5-2.5H182.5z M87.5,127.5 c-10.986,0-20,9.014-20,20s9.014,20,20,20s20-9.014,20-20S98.487,127.5,87.5,127.5z M87.5,137.5c5.582,0,10,4.418,10,10 s-4.418,10-10,10s-10-4.418-10-10S81.918,137.5,87.5,137.5z"/> </g> </g>
</svg>