<svg xmlns="http://www.w3.org/2000/svg" version="1.1" xmlns:xlink="http://www.w3.org/1999/xlink" xmlns:svgjs="http://svgjs.dev/svgjs" width="1440" height="560" preserveAspectRatio="none" viewBox="0 0 1440 560"><g mask="url(&quot;#SvgjsMask2447&quot;)" fill="none"><rect width="1440" height="560" x="0" y="0" fill="url(&quot;#SvgjsLinearGradient2448&quot;)"></rect><path d="M-70.07 339.37L-70.07 339.37" stroke="#132e65" stroke-width="1.5"></path><path d="M-70.07 339.37L61.18 342.62" stroke="#132e65" stroke-width="1.5"></path><path d="M-70.07 339.37L96.85 518.34" stroke="#132e65" stroke-width="1.5"></path><path d="M-58.55 693.59L-58.55 693.59" stroke="#132e65" stroke-width="1.5"></path><path d="M-58.55 693.59L104 703.21" stroke="#132e65" stroke-width="1.5"></path><path d="M-58.55 693.59L96.85 518.34" stroke="#132e65" stroke-width="1.5"></path><path d="M-58.55 693.59L241.24 676.28" stroke="#132e65" stroke-width="1.5"></path><path d="M-58.55 693.59L216.79 510.49" stroke="#132e65" stroke-width="1.5"></path><path d="M-58.55 693.59L-70.07 339.37" stroke="#132e65" stroke-width="1.5"></path><path d="M61.18 342.62L61.18 342.62" stroke="#132e65" stroke-width="1.5"></path><path d="M61.18 342.62L96.85 518.34" stroke="#132e65" stroke-width="1.5"></path><path d="M61.18 342.62L216.79 510.49" stroke="#132e65" stroke-width="1.5"></path><path d="M61.18 342.62L342.32 337.8" stroke="#132e65" stroke-width="1.5"></path><path d="M96.85 518.34L96.85 518.34" stroke="#132e65" stroke-width="1.5"></path><path d="M96.85 518.34L216.79 510.49" stroke="#132e65" stroke-width="1.5"></path><path d="M96.85 518.34L104 703.21" stroke="#132e65" stroke-width="1.5"></path><path d="M96.85 518.34L241.24 676.28" stroke="#132e65" stroke-width="1.5"></path><path d="M104 703.21L104 703.21" stroke="#132e65" stroke-width="1.5"></path><path d="M104 703.21L241.24 676.28" stroke="#132e65" stroke-width="1.5"></path><path d="M104 703.21L216.79 510.49" stroke="#132e65" stroke-width="1.5"></path><path d="M104 703.21L364.91 679.84" stroke="#132e65" stroke-width="1.5"></path><path d="M104 703.21L374.79 538.19" stroke="#132e65" stroke-width="1.5"></path><path d="M216.79 510.49L216.79 510.49" stroke="#132e65" stroke-width="1.5"></path><path d="M216.79 510.49L374.79 538.19" stroke="#132e65" stroke-width="1.5"></path><path d="M241.24 676.28L241.24 676.28" stroke="#132e65" stroke-width="1.5"></path><path d="M241.24 676.28L364.91 679.84" stroke="#132e65" stroke-width="1.5"></path><path d="M241.24 676.28L216.79 510.49" stroke="#132e65" stroke-width="1.5"></path><path d="M241.24 676.28L374.79 538.19" stroke="#132e65" stroke-width="1.5"></path><path d="M342.32 337.8L342.32 337.8" stroke="#132e65" stroke-width="1.5"></path><path d="M342.32 337.8L508.05 405.97" stroke="#132e65" stroke-width="1.5"></path><path d="M342.32 337.8L374.79 538.19" stroke="#132e65" stroke-width="1.5"></path><path d="M342.32 337.8L216.79 510.49" stroke="#132e65" stroke-width="1.5"></path><path d="M342.32 337.8L521.16 500.46" stroke="#132e65" stroke-width="1.5"></path><path d="M342.32 337.8L96.85 518.34" stroke="#132e65" stroke-width="1.5"></path><path d="M374.79 538.19L374.79 538.19" stroke="#132e65" stroke-width="1.5"></path><path d="M374.79 538.19L364.91 679.84" stroke="#132e65" stroke-width="1.5"></path><path d="M364.91 679.84L364.91 679.84" stroke="#132e65" stroke-width="1.5"></path><path d="M364.91 679.84L548.42 696.68" stroke="#132e65" stroke-width="1.5"></path><path d="M364.91 679.84L216.79 510.49" stroke="#132e65" stroke-width="1.5"></path><path d="M508.05 405.97L508.05 405.97" stroke="#132e65" stroke-width="1.5"></path><path d="M508.05 405.97L521.16 500.46" stroke="#132e65" stroke-width="1.5"></path><path d="M508.05 405.97L374.79 538.19" stroke="#132e65" stroke-width="1.5"></path><path d="M508.05 405.97L700.81 392.75" stroke="#132e65" stroke-width="1.5"></path><path d="M508.05 405.97L674.73 534.7" stroke="#132e65" stroke-width="1.5"></path><path d="M521.16 500.46L521.16 500.46" stroke="#132e65" stroke-width="1.5"></path><path d="M521.16 500.46L374.79 538.19" stroke="#132e65" stroke-width="1.5"></path><path d="M521.16 500.46L674.73 534.7" stroke="#132e65" stroke-width="1.5"></path><path d="M521.16 500.46L548.42 696.68" stroke="#132e65" stroke-width="1.5"></path><path d="M521.16 500.46L700.81 392.75" stroke="#132e65" stroke-width="1.5"></path><path d="M521.16 500.46L650.46 669.45" stroke="#132e65" stroke-width="1.5"></path><path d="M548.42 696.68L548.42 696.68" stroke="#132e65" stroke-width="1.5"></path><path d="M548.42 696.68L650.46 669.45" stroke="#132e65" stroke-width="1.5"></path><path d="M700.81 392.75L700.81 392.75" stroke="#132e65" stroke-width="1.5"></path><path d="M700.81 392.75L816.35 410.09" stroke="#132e65" stroke-width="1.5"></path><path d="M700.81 392.75L674.73 534.7" stroke="#132e65" stroke-width="1.5"></path><path d="M700.81 392.75L832.41 193.83" stroke="#132e65" stroke-width="1.5"></path><path d="M700.81 392.75L650.46 669.45" stroke="#132e65" stroke-width="1.5"></path><path d="M674.73 534.7L674.73 534.7" stroke="#132e65" stroke-width="1.5"></path><path d="M674.73 534.7L650.46 669.45" stroke="#132e65" stroke-width="1.5"></path><path d="M674.73 534.7L816.35 410.09" stroke="#132e65" stroke-width="1.5"></path><path d="M650.46 669.45L650.46 669.45" stroke="#132e65" stroke-width="1.5"></path><path d="M853.58 98.9L853.58 98.9" stroke="#132e65" stroke-width="1.5"></path><path d="M853.58 98.9L832.41 193.83" stroke="#132e65" stroke-width="1.5"></path><path d="M853.58 98.9L973.36 80.28" stroke="#132e65" stroke-width="1.5"></path><path d="M832.41 193.83L832.41 193.83" stroke="#132e65" stroke-width="1.5"></path><path d="M832.41 193.83L958.73 245.3" stroke="#132e65" stroke-width="1.5"></path><path d="M832.41 193.83L973.36 80.28" stroke="#132e65" stroke-width="1.5"></path><path d="M816.35 410.09L816.35 410.09" stroke="#132e65" stroke-width="1.5"></path><path d="M816.35 410.09L964.92 519.43" stroke="#132e65" stroke-width="1.5"></path><path d="M823.75 658.44L823.75 658.44" stroke="#132e65" stroke-width="1.5"></path><path d="M823.75 658.44L972.43 672.22" stroke="#132e65" stroke-width="1.5"></path><path d="M823.75 658.44L650.46 669.45" stroke="#132e65" stroke-width="1.5"></path><path d="M823.75 658.44L674.73 534.7" stroke="#132e65" stroke-width="1.5"></path><path d="M823.75 658.44L964.92 519.43" stroke="#132e65" stroke-width="1.5"></path><path d="M966.42 -96.86L966.42 -96.86" stroke="#132e65" stroke-width="1.5"></path><path d="M966.42 -96.86L1131.39 -63.58" stroke="#132e65" stroke-width="1.5"></path><path d="M973.36 80.28L973.36 80.28" stroke="#132e65" stroke-width="1.5"></path><path d="M973.36 80.28L1094.34 49.99" stroke="#132e65" stroke-width="1.5"></path><path d="M973.36 80.28L958.73 245.3" stroke="#132e65" stroke-width="1.5"></path><path d="M973.36 80.28L966.42 -96.86" stroke="#132e65" stroke-width="1.5"></path><path d="M973.36 80.28L1092.76 255.27" stroke="#132e65" stroke-width="1.5"></path><path d="M958.73 245.3L958.73 245.3" stroke="#132e65" stroke-width="1.5"></path><path d="M958.73 245.3L1092.76 255.27" stroke="#132e65" stroke-width="1.5"></path><path d="M958.73 245.3L853.58 98.9" stroke="#132e65" stroke-width="1.5"></path><path d="M958.73 245.3L816.35 410.09" stroke="#132e65" stroke-width="1.5"></path><path d="M964.92 519.43L964.92 519.43" stroke="#132e65" stroke-width="1.5"></path><path d="M964.92 519.43L1091.45 493.54" stroke="#132e65" stroke-width="1.5"></path><path d="M964.92 519.43L972.43 672.22" stroke="#132e65" stroke-width="1.5"></path><path d="M964.92 519.43L1133.64 390.46" stroke="#132e65" stroke-width="1.5"></path><path d="M964.92 519.43L1126.9 656.89" stroke="#132e65" stroke-width="1.5"></path><path d="M972.43 672.22L972.43 672.22" stroke="#132e65" stroke-width="1.5"></path><path d="M972.43 672.22L1126.9 656.89" stroke="#132e65" stroke-width="1.5"></path><path d="M972.43 672.22L1091.45 493.54" stroke="#132e65" stroke-width="1.5"></path><path d="M972.43 672.22L816.35 410.09" stroke="#132e65" stroke-width="1.5"></path><path d="M972.43 672.22L1281.99 695.2" stroke="#132e65" stroke-width="1.5"></path><path d="M1131.39 -63.58L1131.39 -63.58" stroke="#132e65" stroke-width="1.5"></path><path d="M1131.39 -63.58L1094.34 49.99" stroke="#132e65" stroke-width="1.5"></path><path d="M1131.39 -63.58L1285.1 -103.49" stroke="#132e65" stroke-width="1.5"></path><path d="M1131.39 -63.58L973.36 80.28" stroke="#132e65" stroke-width="1.5"></path><path d="M1131.39 -63.58L1306 82.52" stroke="#132e65" stroke-width="1.5"></path><path d="M1131.39 -63.58L1244.31 194.43" stroke="#132e65" stroke-width="1.5"></path><path d="M1094.34 49.99L1094.34 49.99" stroke="#132e65" stroke-width="1.5"></path><path d="M1094.34 49.99L966.42 -96.86" stroke="#132e65" stroke-width="1.5"></path><path d="M1092.76 255.27L1092.76 255.27" stroke="#132e65" stroke-width="1.5"></path><path d="M1092.76 255.27L1133.64 390.46" stroke="#132e65" stroke-width="1.5"></path><path d="M1092.76 255.27L1244.31 194.43" stroke="#132e65" stroke-width="1.5"></path><path d="M1092.76 255.27L1094.34 49.99" stroke="#132e65" stroke-width="1.5"></path><path d="M1133.64 390.46L1133.64 390.46" stroke="#132e65" stroke-width="1.5"></path><path d="M1133.64 390.46L1091.45 493.54" stroke="#132e65" stroke-width="1.5"></path><path d="M1133.64 390.46L1256.65 410.42" stroke="#132e65" stroke-width="1.5"></path><path d="M1133.64 390.46L1310.57 522.35" stroke="#132e65" stroke-width="1.5"></path><path d="M1091.45 493.54L1091.45 493.54" stroke="#132e65" stroke-width="1.5"></path><path d="M1091.45 493.54L1126.9 656.89" stroke="#132e65" stroke-width="1.5"></path><path d="M1091.45 493.54L1256.65 410.42" stroke="#132e65" stroke-width="1.5"></path><path d="M1091.45 493.54L1310.57 522.35" stroke="#132e65" stroke-width="1.5"></path><path d="M1126.9 656.89L1126.9 656.89" stroke="#132e65" stroke-width="1.5"></path><path d="M1126.9 656.89L1281.99 695.2" stroke="#132e65" stroke-width="1.5"></path><path d="M1285.1 -103.49L1285.1 -103.49" stroke="#132e65" stroke-width="1.5"></path><path d="M1285.1 -103.49L1459.73 -51.7" stroke="#132e65" stroke-width="1.5"></path><path d="M1306 82.52L1306 82.52" stroke="#132e65" stroke-width="1.5"></path><path d="M1306 82.52L1397.45 110.98" stroke="#132e65" stroke-width="1.5"></path><path d="M1306 82.52L1244.31 194.43" stroke="#132e65" stroke-width="1.5"></path><path d="M1244.31 194.43L1244.31 194.43" stroke="#132e65" stroke-width="1.5"></path><path d="M1244.31 194.43L1397.45 110.98" stroke="#132e65" stroke-width="1.5"></path><path d="M1244.31 194.43L1425.28 219.69" stroke="#132e65" stroke-width="1.5"></path><path d="M1244.31 194.43L1094.34 49.99" stroke="#132e65" stroke-width="1.5"></path><path d="M1256.65 410.42L1256.65 410.42" stroke="#132e65" stroke-width="1.5"></path><path d="M1256.65 410.42L1310.57 522.35" stroke="#132e65" stroke-width="1.5"></path><path d="M1256.65 410.42L1395.78 502.24" stroke="#132e65" stroke-width="1.5"></path><path d="M1310.57 522.35L1310.57 522.35" stroke="#132e65" stroke-width="1.5"></path><path d="M1310.57 522.35L1395.78 502.24" stroke="#132e65" stroke-width="1.5"></path><path d="M1310.57 522.35L1281.99 695.2" stroke="#132e65" stroke-width="1.5"></path><path d="M1310.57 522.35L1459.27 389.78" stroke="#132e65" stroke-width="1.5"></path><path d="M1281.99 695.2L1281.99 695.2" stroke="#132e65" stroke-width="1.5"></path><path d="M1281.99 695.2L1436.49 708.41" stroke="#132e65" stroke-width="1.5"></path><path d="M1281.99 695.2L1395.78 502.24" stroke="#132e65" stroke-width="1.5"></path><path d="M1281.99 695.2L1091.45 493.54" stroke="#132e65" stroke-width="1.5"></path><path d="M1281.99 695.2L1256.65 410.42" stroke="#132e65" stroke-width="1.5"></path><path d="M1459.73 -51.7L1459.73 -51.7" stroke="#132e65" stroke-width="1.5"></path><path d="M1459.73 -51.7L1603.08 -104.4" stroke="#132e65" stroke-width="1.5"></path><path d="M1459.73 -51.7L1397.45 110.98" stroke="#132e65" stroke-width="1.5"></path><path d="M1397.45 110.98L1397.45 110.98" stroke="#132e65" stroke-width="1.5"></path><path d="M1397.45 110.98L1425.28 219.69" stroke="#132e65" stroke-width="1.5"></path><path d="M1397.45 110.98L1596.73 222.66" stroke="#132e65" stroke-width="1.5"></path><path d="M1397.45 110.98L1285.1 -103.49" stroke="#132e65" stroke-width="1.5"></path><path d="M1425.28 219.69L1425.28 219.69" stroke="#132e65" stroke-width="1.5"></path><path d="M1425.28 219.69L1596.73 222.66" stroke="#132e65" stroke-width="1.5"></path><path d="M1425.28 219.69L1459.27 389.78" stroke="#132e65" stroke-width="1.5"></path><path d="M1425.28 219.69L1306 82.52" stroke="#132e65" stroke-width="1.5"></path><path d="M1425.28 219.69L1256.65 410.42" stroke="#132e65" stroke-width="1.5"></path><path d="M1459.27 389.78L1459.27 389.78" stroke="#132e65" stroke-width="1.5"></path><path d="M1459.27 389.78L1395.78 502.24" stroke="#132e65" stroke-width="1.5"></path><path d="M1395.78 502.24L1395.78 502.24" stroke="#132e65" stroke-width="1.5"></path><path d="M1436.49 708.41L1436.49 708.41" stroke="#132e65" stroke-width="1.5"></path><path d="M1436.49 708.41L1395.78 502.24" stroke="#132e65" stroke-width="1.5"></path><path d="M1436.49 708.41L1310.57 522.35" stroke="#132e65" stroke-width="1.5"></path><path d="M1603.08 -104.4L1603.08 -104.4" stroke="#132e65" stroke-width="1.5"></path><path d="M1603.08 -104.4L1397.45 110.98" stroke="#132e65" stroke-width="1.5"></path><path d="M1603.08 -104.4L1285.1 -103.49" stroke="#132e65" stroke-width="1.5"></path><path d="M1603.08 -104.4L1596.73 222.66" stroke="#132e65" stroke-width="1.5"></path><path d="M1596.73 222.66L1596.73 222.66" stroke="#132e65" stroke-width="1.5"></path><path d="M1596.73 222.66L1459.27 389.78" stroke="#132e65" stroke-width="1.5"></path><path d="M1596.73 222.66L1605.74 489.3" stroke="#132e65" stroke-width="1.5"></path><path d="M1596.73 222.66L1459.73 -51.7" stroke="#132e65" stroke-width="1.5"></path><path d="M1605.74 489.3L1605.74 489.3" stroke="#132e65" stroke-width="1.5"></path><path d="M1605.74 489.3L1459.27 389.78" stroke="#132e65" stroke-width="1.5"></path><path d="M1605.74 489.3L1395.78 502.24" stroke="#132e65" stroke-width="1.5"></path><circle r="5" cx="-70.07" cy="339.37" fill="#132e65"></circle><circle r="5" cx="-58.55" cy="693.59" fill="#132e65"></circle><circle r="5" cx="61.18" cy="342.62" fill="#132e65"></circle><circle r="5" cx="96.85" cy="518.34" fill="#132e65"></circle><circle r="5" cx="104" cy="703.21" fill="#132e65"></circle><circle r="5" cx="216.79" cy="510.49" fill="#132e65"></circle><circle r="5" cx="241.24" cy="676.28" fill="#132e65"></circle><circle r="5" cx="342.32" cy="337.8" fill="#132e65"></circle><circle r="5" cx="374.79" cy="538.19" fill="#132e65"></circle><circle r="5" cx="364.91" cy="679.84" fill="#132e65"></circle><circle r="5" cx="508.05" cy="405.97" fill="#132e65"></circle><circle r="5" cx="521.16" cy="500.46" fill="#132e65"></circle><circle r="5" cx="548.42" cy="696.68" fill="#132e65"></circle><circle r="5" cx="700.81" cy="392.75" fill="#132e65"></circle><circle r="5" cx="674.73" cy="534.7" fill="#132e65"></circle><circle r="5" cx="650.46" cy="669.45" fill="#132e65"></circle><circle r="5" cx="853.58" cy="98.9" fill="#132e65"></circle><circle r="5" cx="832.41" cy="193.83" fill="#132e65"></circle><circle r="5" cx="816.35" cy="410.09" fill="#132e65"></circle><circle r="5" cx="823.75" cy="658.44" fill="#132e65"></circle><circle r="5" cx="966.42" cy="-96.86" fill="#132e65"></circle><circle r="5" cx="973.36" cy="80.28" fill="#132e65"></circle><circle r="5" cx="958.73" cy="245.3" fill="#132e65"></circle><circle r="5" cx="964.92" cy="519.43" fill="#132e65"></circle><circle r="5" cx="972.43" cy="672.22" fill="#132e65"></circle><circle r="5" cx="1131.39" cy="-63.58" fill="#132e65"></circle><circle r="5" cx="1094.34" cy="49.99" fill="#132e65"></circle><circle r="5" cx="1092.76" cy="255.27" fill="#132e65"></circle><circle r="5" cx="1133.64" cy="390.46" fill="#132e65"></circle><circle r="5" cx="1091.45" cy="493.54" fill="#132e65"></circle><circle r="5" cx="1126.9" cy="656.89" fill="#132e65"></circle><circle r="5" cx="1285.1" cy="-103.49" fill="#132e65"></circle><circle r="5" cx="1306" cy="82.52" fill="#132e65"></circle><circle r="5" cx="1244.31" cy="194.43" fill="#132e65"></circle><circle r="5" cx="1256.65" cy="410.42" fill="#132e65"></circle><circle r="5" cx="1310.57" cy="522.35" fill="#132e65"></circle><circle r="5" cx="1281.99" cy="695.2" fill="#132e65"></circle><circle r="5" cx="1459.73" cy="-51.7" fill="#132e65"></circle><circle r="5" cx="1397.45" cy="110.98" fill="#132e65"></circle><circle r="5" cx="1425.28" cy="219.69" fill="#132e65"></circle><circle r="5" cx="1459.27" cy="389.78" fill="#132e65"></circle><circle r="5" cx="1395.78" cy="502.24" fill="#132e65"></circle><circle r="5" cx="1436.49" cy="708.41" fill="#132e65"></circle><circle r="5" cx="1603.08" cy="-104.4" fill="#132e65"></circle><circle r="5" cx="1596.73" cy="222.66" fill="#132e65"></circle><circle r="5" cx="1605.74" cy="489.3" fill="#132e65"></circle><path d="M387.21 644.63L387.21 644.63" stroke="hsl(228.5, 77.2%, 51.5%)" stroke-width="1.5"></path><path d="M387.21 644.63L352.5 559.95" stroke="hsl(228.5, 77.2%, 51.5%)" stroke-width="1.5"></path><path d="M387.21 644.63L255.78 654.84" stroke="hsl(228.5, 77.2%, 51.5%)" stroke-width="1.5"></path><path d="M387.21 644.63L504.4 551.76" stroke="hsl(228.5, 77.2%, 51.5%)" stroke-width="1.5"></path><path d="M387.21 644.63L549.76 638.55" stroke="hsl(228.5, 77.2%, 51.5%)" stroke-width="1.5"></path><path d="M387.21 644.63L209.64 529.87" stroke="hsl(228.5, 77.2%, 51.5%)" stroke-width="1.5"></path><path d="M387.21 644.63L672.13 641.81" stroke="hsl(228.5, 77.2%, 51.5%)" stroke-width="1.5"></path><path d="M803.05 349.88L803.05 349.88" stroke="hsl(228.5, 77.2%, 51.5%)" stroke-width="1.5"></path><path d="M803.05 349.88L821.5 556.98" stroke="hsl(228.5, 77.2%, 51.5%)" stroke-width="1.5"></path><path d="M803.05 349.88L650.98 512.35" stroke="hsl(228.5, 77.2%, 51.5%)" stroke-width="1.5"></path><path d="M997.14 519.27L997.14 519.27" stroke="hsl(228.5, 77.2%, 51.5%)" stroke-width="1.5"></path><path d="M997.14 519.27L1095.48 488.05" stroke="hsl(228.5, 77.2%, 51.5%)" stroke-width="1.5"></path><path d="M997.14 519.27L970.06 675.26" stroke="hsl(228.5, 77.2%, 51.5%)" stroke-width="1.5"></path><path d="M970.06 675.26L970.06 675.26" stroke="hsl(228.5, 77.2%, 51.5%)" stroke-width="1.5"></path><path d="M970.06 675.26L1087.89 700.61" stroke="hsl(228.5, 77.2%, 51.5%)" stroke-width="1.5"></path><path d="M970.06 675.26L803.97 652.24" stroke="hsl(228.5, 77.2%, 51.5%)" stroke-width="1.5"></path><path d="M1158.45 -109.88L1158.45 -109.88" stroke="hsl(228.5, 77.2%, 51.5%)" stroke-width="1.5"></path><path d="M1158.45 -109.88L1261.58 -69.13" stroke="hsl(228.5, 77.2%, 51.5%)" stroke-width="1.5"></path><path d="M1158.45 -109.88L1308.68 51.97" stroke="hsl(228.5, 77.2%, 51.5%)" stroke-width="1.5"></path><path d="M1158.45 -109.88L1427.76 -90.74" stroke="hsl(228.5, 77.2%, 51.5%)" stroke-width="1.5"></path><path d="M1135.87 392.67L1135.87 392.67" stroke="hsl(228.5, 77.2%, 51.5%)" stroke-width="1.5"></path><path d="M1135.87 392.67L1095.48 488.05" stroke="hsl(228.5, 77.2%, 51.5%)" stroke-width="1.5"></path><path d="M1135.87 392.67L1276.91 346.29" stroke="hsl(228.5, 77.2%, 51.5%)" stroke-width="1.5"></path><path d="M1135.87 392.67L1255.19 501.9" stroke="hsl(228.5, 77.2%, 51.5%)" stroke-width="1.5"></path><path d="M1135.87 392.67L997.14 519.27" stroke="hsl(228.5, 77.2%, 51.5%)" stroke-width="1.5"></path><path d="M1095.48 488.05L1095.48 488.05" stroke="hsl(228.5, 77.2%, 51.5%)" stroke-width="1.5"></path><path d="M1568.95 561.09L1568.95 561.09" stroke="hsl(228.5, 77.2%, 51.5%)" stroke-width="1.5"></path><path d="M1568.95 561.09L1571.8 662" stroke="hsl(228.5, 77.2%, 51.5%)" stroke-width="1.5"></path><path d="M1568.95 561.09L1450.42 530.93" stroke="hsl(228.5, 77.2%, 51.5%)" stroke-width="1.5"></path><path d="M1571.8 662L1571.8 662" stroke="hsl(228.5, 77.2%, 51.5%)" stroke-width="1.5"></path><path d="M1571.8 662L1429.75 701" stroke="hsl(228.5, 77.2%, 51.5%)" stroke-width="1.5"></path><path d="M1571.8 662L1450.42 530.93" stroke="hsl(228.5, 77.2%, 51.5%)" stroke-width="1.5"></path><path d="M-39.43 655.73L-39.43 655.73" stroke="hsl(228.5, 77.2%, 51.5%)" stroke-width="1.5"></path><path d="M-39.43 655.73L48.69 652.63" stroke="hsl(228.5, 77.2%, 51.5%)" stroke-width="1.5"></path><path d="M-39.43 655.73L78.46 493.2" stroke="hsl(228.5, 77.2%, 51.5%)" stroke-width="1.5"></path><path d="M-39.43 655.73L209.64 529.87" stroke="hsl(228.5, 77.2%, 51.5%)" stroke-width="1.5"></path><path d="M-39.43 655.73L255.78 654.84" stroke="hsl(228.5, 77.2%, 51.5%)" stroke-width="1.5"></path><path d="M78.46 493.2L78.46 493.2" stroke="hsl(228.5, 77.2%, 51.5%)" stroke-width="1.5"></path><path d="M78.46 493.2L209.64 529.87" stroke="hsl(228.5, 77.2%, 51.5%)" stroke-width="1.5"></path><path d="M78.46 493.2L48.69 652.63" stroke="hsl(228.5, 77.2%, 51.5%)" stroke-width="1.5"></path><path d="M48.69 652.63L48.69 652.63" stroke="hsl(228.5, 77.2%, 51.5%)" stroke-width="1.5"></path><path d="M209.64 529.87L209.64 529.87" stroke="hsl(228.5, 77.2%, 51.5%)" stroke-width="1.5"></path><path d="M209.64 529.87L255.78 654.84" stroke="hsl(228.5, 77.2%, 51.5%)" stroke-width="1.5"></path><path d="M255.78 654.84L255.78 654.84" stroke="hsl(228.5, 77.2%, 51.5%)" stroke-width="1.5"></path><path d="M255.78 654.84L352.5 559.95" stroke="hsl(228.5, 77.2%, 51.5%)" stroke-width="1.5"></path><path d="M255.78 654.84L48.69 652.63" stroke="hsl(228.5, 77.2%, 51.5%)" stroke-width="1.5"></path><path d="M352.5 559.95L352.5 559.95" stroke="hsl(228.5, 77.2%, 51.5%)" stroke-width="1.5"></path><path d="M352.5 559.95L209.64 529.87" stroke="hsl(228.5, 77.2%, 51.5%)" stroke-width="1.5"></path><path d="M352.5 559.95L504.4 551.76" stroke="hsl(228.5, 77.2%, 51.5%)" stroke-width="1.5"></path><path d="M352.5 559.95L549.76 638.55" stroke="hsl(228.5, 77.2%, 51.5%)" stroke-width="1.5"></path><path d="M352.5 559.95L78.46 493.2" stroke="hsl(228.5, 77.2%, 51.5%)" stroke-width="1.5"></path><path d="M504.4 551.76L504.4 551.76" stroke="hsl(228.5, 77.2%, 51.5%)" stroke-width="1.5"></path><path d="M504.4 551.76L549.76 638.55" stroke="hsl(228.5, 77.2%, 51.5%)" stroke-width="1.5"></path><path d="M504.4 551.76L650.98 512.35" stroke="hsl(228.5, 77.2%, 51.5%)" stroke-width="1.5"></path><path d="M504.4 551.76L672.13 641.81" stroke="hsl(228.5, 77.2%, 51.5%)" stroke-width="1.5"></path><path d="M549.76 638.55L549.76 638.55" stroke="hsl(228.5, 77.2%, 51.5%)" stroke-width="1.5"></path><path d="M549.76 638.55L672.13 641.81" stroke="hsl(228.5, 77.2%, 51.5%)" stroke-width="1.5"></path><path d="M549.76 638.55L650.98 512.35" stroke="hsl(228.5, 77.2%, 51.5%)" stroke-width="1.5"></path><path d="M650.98 512.35L650.98 512.35" stroke="hsl(228.5, 77.2%, 51.5%)" stroke-width="1.5"></path><path d="M650.98 512.35L672.13 641.81" stroke="hsl(228.5, 77.2%, 51.5%)" stroke-width="1.5"></path><path d="M672.13 641.81L672.13 641.81" stroke="hsl(228.5, 77.2%, 51.5%)" stroke-width="1.5"></path><path d="M821.5 556.98L821.5 556.98" stroke="hsl(228.5, 77.2%, 51.5%)" stroke-width="1.5"></path><path d="M821.5 556.98L803.97 652.24" stroke="hsl(228.5, 77.2%, 51.5%)" stroke-width="1.5"></path><path d="M821.5 556.98L672.13 641.81" stroke="hsl(228.5, 77.2%, 51.5%)" stroke-width="1.5"></path><path d="M821.5 556.98L650.98 512.35" stroke="hsl(228.5, 77.2%, 51.5%)" stroke-width="1.5"></path><path d="M821.5 556.98L997.14 519.27" stroke="hsl(228.5, 77.2%, 51.5%)" stroke-width="1.5"></path><path d="M821.5 556.98L970.06 675.26" stroke="hsl(228.5, 77.2%, 51.5%)" stroke-width="1.5"></path><path d="M803.97 652.24L803.97 652.24" stroke="hsl(228.5, 77.2%, 51.5%)" stroke-width="1.5"></path><path d="M803.97 652.24L672.13 641.81" stroke="hsl(228.5, 77.2%, 51.5%)" stroke-width="1.5"></path><path d="M803.97 652.24L650.98 512.35" stroke="hsl(228.5, 77.2%, 51.5%)" stroke-width="1.5"></path><path d="M803.97 652.24L997.14 519.27" stroke="hsl(228.5, 77.2%, 51.5%)" stroke-width="1.5"></path><path d="M803.97 652.24L549.76 638.55" stroke="hsl(228.5, 77.2%, 51.5%)" stroke-width="1.5"></path><path d="M1087.89 700.61L1087.89 700.61" stroke="hsl(228.5, 77.2%, 51.5%)" stroke-width="1.5"></path><path d="M1087.89 700.61L997.14 519.27" stroke="hsl(228.5, 77.2%, 51.5%)" stroke-width="1.5"></path><path d="M1261.58 -69.13L1261.58 -69.13" stroke="hsl(228.5, 77.2%, 51.5%)" stroke-width="1.5"></path><path d="M1261.58 -69.13L1308.68 51.97" stroke="hsl(228.5, 77.2%, 51.5%)" stroke-width="1.5"></path><path d="M1261.58 -69.13L1427.76 -90.74" stroke="hsl(228.5, 77.2%, 51.5%)" stroke-width="1.5"></path><path d="M1308.68 51.97L1308.68 51.97" stroke="hsl(228.5, 77.2%, 51.5%)" stroke-width="1.5"></path><path d="M1308.68 51.97L1422.62 89.78" stroke="hsl(228.5, 77.2%, 51.5%)" stroke-width="1.5"></path><path d="M1308.68 51.97L1240.95 218.52" stroke="hsl(228.5, 77.2%, 51.5%)" stroke-width="1.5"></path><path d="M1308.68 51.97L1427.76 -90.74" stroke="hsl(228.5, 77.2%, 51.5%)" stroke-width="1.5"></path><path d="M1308.68 51.97L1417.21 237.2" stroke="hsl(228.5, 77.2%, 51.5%)" stroke-width="1.5"></path><path d="M1240.95 218.52L1240.95 218.52" stroke="hsl(228.5, 77.2%, 51.5%)" stroke-width="1.5"></path><path d="M1240.95 218.52L1276.91 346.29" stroke="hsl(228.5, 77.2%, 51.5%)" stroke-width="1.5"></path><path d="M1240.95 218.52L1417.21 237.2" stroke="hsl(228.5, 77.2%, 51.5%)" stroke-width="1.5"></path><path d="M1240.95 218.52L1135.87 392.67" stroke="hsl(228.5, 77.2%, 51.5%)" stroke-width="1.5"></path><path d="M1276.91 346.29L1276.91 346.29" stroke="hsl(228.5, 77.2%, 51.5%)" stroke-width="1.5"></path><path d="M1276.91 346.29L1255.19 501.9" stroke="hsl(228.5, 77.2%, 51.5%)" stroke-width="1.5"></path><path d="M1276.91 346.29L1435.74 409.84" stroke="hsl(228.5, 77.2%, 51.5%)" stroke-width="1.5"></path><path d="M1276.91 346.29L1417.21 237.2" stroke="hsl(228.5, 77.2%, 51.5%)" stroke-width="1.5"></path><path d="M1276.91 346.29L1095.48 488.05" stroke="hsl(228.5, 77.2%, 51.5%)" stroke-width="1.5"></path><path d="M1255.19 501.9L1255.19 501.9" stroke="hsl(228.5, 77.2%, 51.5%)" stroke-width="1.5"></path><path d="M1255.19 501.9L1095.48 488.05" stroke="hsl(228.5, 77.2%, 51.5%)" stroke-width="1.5"></path><path d="M1255.19 501.9L1450.42 530.93" stroke="hsl(228.5, 77.2%, 51.5%)" stroke-width="1.5"></path><path d="M1427.76 -90.74L1427.76 -90.74" stroke="hsl(228.5, 77.2%, 51.5%)" stroke-width="1.5"></path><path d="M1427.76 -90.74L1596.02 -108.91" stroke="hsl(228.5, 77.2%, 51.5%)" stroke-width="1.5"></path><path d="M1427.76 -90.74L1422.62 89.78" stroke="hsl(228.5, 77.2%, 51.5%)" stroke-width="1.5"></path><path d="M1422.62 89.78L1422.62 89.78" stroke="hsl(228.5, 77.2%, 51.5%)" stroke-width="1.5"></path><path d="M1422.62 89.78L1561.18 100.77" stroke="hsl(228.5, 77.2%, 51.5%)" stroke-width="1.5"></path><path d="M1417.21 237.2L1417.21 237.2" stroke="hsl(228.5, 77.2%, 51.5%)" stroke-width="1.5"></path><path d="M1417.21 237.2L1553.92 192.53" stroke="hsl(228.5, 77.2%, 51.5%)" stroke-width="1.5"></path><path d="M1435.74 409.84L1435.74 409.84" stroke="hsl(228.5, 77.2%, 51.5%)" stroke-width="1.5"></path><path d="M1435.74 409.84L1543.45 401.28" stroke="hsl(228.5, 77.2%, 51.5%)" stroke-width="1.5"></path><path d="M1435.74 409.84L1450.42 530.93" stroke="hsl(228.5, 77.2%, 51.5%)" stroke-width="1.5"></path><path d="M1435.74 409.84L1417.21 237.2" stroke="hsl(228.5, 77.2%, 51.5%)" stroke-width="1.5"></path><path d="M1450.42 530.93L1450.42 530.93" stroke="hsl(228.5, 77.2%, 51.5%)" stroke-width="1.5"></path><path d="M1450.42 530.93L1543.45 401.28" stroke="hsl(228.5, 77.2%, 51.5%)" stroke-width="1.5"></path><path d="M1450.42 530.93L1429.75 701" stroke="hsl(228.5, 77.2%, 51.5%)" stroke-width="1.5"></path><path d="M1429.75 701L1429.75 701" stroke="hsl(228.5, 77.2%, 51.5%)" stroke-width="1.5"></path><path d="M1429.75 701L1568.95 561.09" stroke="hsl(228.5, 77.2%, 51.5%)" stroke-width="1.5"></path><path d="M1429.75 701L1255.19 501.9" stroke="hsl(228.5, 77.2%, 51.5%)" stroke-width="1.5"></path><path d="M1429.75 701L1435.74 409.84" stroke="hsl(228.5, 77.2%, 51.5%)" stroke-width="1.5"></path><path d="M1596.02 -108.91L1596.02 -108.91" stroke="hsl(228.5, 77.2%, 51.5%)" stroke-width="1.5"></path><path d="M1596.02 -108.91L1561.18 100.77" stroke="hsl(228.5, 77.2%, 51.5%)" stroke-width="1.5"></path><path d="M1596.02 -108.91L1422.62 89.78" stroke="hsl(228.5, 77.2%, 51.5%)" stroke-width="1.5"></path><path d="M1596.02 -108.91L1553.92 192.53" stroke="hsl(228.5, 77.2%, 51.5%)" stroke-width="1.5"></path><path d="M1596.02 -108.91L1308.68 51.97" stroke="hsl(228.5, 77.2%, 51.5%)" stroke-width="1.5"></path><path d="M1561.18 100.77L1561.18 100.77" stroke="hsl(228.5, 77.2%, 51.5%)" stroke-width="1.5"></path><path d="M1561.18 100.77L1553.92 192.53" stroke="hsl(228.5, 77.2%, 51.5%)" stroke-width="1.5"></path><path d="M1561.18 100.77L1417.21 237.2" stroke="hsl(228.5, 77.2%, 51.5%)" stroke-width="1.5"></path><path d="M1553.92 192.53L1553.92 192.53" stroke="hsl(228.5, 77.2%, 51.5%)" stroke-width="1.5"></path><path d="M1553.92 192.53L1422.62 89.78" stroke="hsl(228.5, 77.2%, 51.5%)" stroke-width="1.5"></path><path d="M1553.92 192.53L1543.45 401.28" stroke="hsl(228.5, 77.2%, 51.5%)" stroke-width="1.5"></path><path d="M1553.92 192.53L1435.74 409.84" stroke="hsl(228.5, 77.2%, 51.5%)" stroke-width="1.5"></path><path d="M1543.45 401.28L1543.45 401.28" stroke="hsl(228.5, 77.2%, 51.5%)" stroke-width="1.5"></path><circle r="25" cx="387.21" cy="644.63" fill="url(&quot;#SvgjsRadialGradient2449&quot;)"></circle><circle r="25" cx="803.05" cy="349.88" fill="url(&quot;#SvgjsRadialGradient2449&quot;)"></circle><circle r="25" cx="997.14" cy="519.27" fill="url(&quot;#SvgjsRadialGradient2449&quot;)"></circle><circle r="25" cx="970.06" cy="675.26" fill="url(&quot;#SvgjsRadialGradient2449&quot;)"></circle><circle r="25" cx="1158.45" cy="-109.88" fill="url(&quot;#SvgjsRadialGradient2449&quot;)"></circle><circle r="25" cx="1135.87" cy="392.67" fill="url(&quot;#SvgjsRadialGradient2449&quot;)"></circle><circle r="25" cx="1095.48" cy="488.05" fill="url(&quot;#SvgjsRadialGradient2449&quot;)"></circle><circle r="25" cx="1568.95" cy="561.09" fill="url(&quot;#SvgjsRadialGradient2449&quot;)"></circle><circle r="25" cx="1571.8" cy="662" fill="url(&quot;#SvgjsRadialGradient2449&quot;)"></circle><circle r="5" cx="-39.43" cy="655.73" fill="#8b9ad9"></circle><circle r="5" cx="78.46" cy="493.2" fill="#8b9ad9"></circle><circle r="5" cx="48.69" cy="652.63" fill="#8b9ad9"></circle><circle r="5" cx="209.64" cy="529.87" fill="#8b9ad9"></circle><circle r="5" cx="255.78" cy="654.84" fill="#8b9ad9"></circle><circle r="5" cx="352.5" cy="559.95" fill="#8b9ad9"></circle><circle r="5" cx="504.4" cy="551.76" fill="#8b9ad9"></circle><circle r="5" cx="549.76" cy="638.55" fill="#8b9ad9"></circle><circle r="5" cx="650.98" cy="512.35" fill="#8b9ad9"></circle><circle r="5" cx="672.13" cy="641.81" fill="#8b9ad9"></circle><circle r="5" cx="821.5" cy="556.98" fill="#8b9ad9"></circle><circle r="5" cx="803.97" cy="652.24" fill="#8b9ad9"></circle><circle r="5" cx="1087.89" cy="700.61" fill="#8b9ad9"></circle><circle r="5" cx="1261.58" cy="-69.13" fill="#8b9ad9"></circle><circle r="5" cx="1308.68" cy="51.97" fill="#8b9ad9"></circle><circle r="5" cx="1240.95" cy="218.52" fill="#8b9ad9"></circle><circle r="5" cx="1276.91" cy="346.29" fill="#8b9ad9"></circle><circle r="5" cx="1255.19" cy="501.9" fill="#8b9ad9"></circle><circle r="5" cx="1427.76" cy="-90.74" fill="#8b9ad9"></circle><circle r="5" cx="1422.62" cy="89.78" fill="#8b9ad9"></circle><circle r="5" cx="1417.21" cy="237.2" fill="#8b9ad9"></circle><circle r="5" cx="1435.74" cy="409.84" fill="#8b9ad9"></circle><circle r="5" cx="1450.42" cy="530.93" fill="#8b9ad9"></circle><circle r="5" cx="1429.75" cy="701" fill="#8b9ad9"></circle><circle r="5" cx="1596.02" cy="-108.91" fill="#8b9ad9"></circle><circle r="5" cx="1561.18" cy="100.77" fill="#8b9ad9"></circle><circle r="5" cx="1553.92" cy="192.53" fill="#8b9ad9"></circle><circle r="5" cx="1543.45" cy="401.28" fill="#8b9ad9"></circle></g><defs><mask id="SvgjsMask2447"><rect width="1440" height="560" fill="#ffffff"></rect></mask><linearGradient x1="100%" y1="50%" x2="0%" y2="50%" gradientUnits="userSpaceOnUse" id="SvgjsLinearGradient2448"><stop stop-color="#0e2a47" offset="0"></stop><stop stop-color="rgba(4, 14, 57, 1)" offset="1"></stop></linearGradient><radialGradient id="SvgjsRadialGradient2449"><stop stop-color="#ffffff" offset="0.1"></stop><stop stop-color="#1735b3" offset="0.2"></stop><stop stop-color="rgba(23, 53, 179, 0)" offset="1"></stop></radialGradient></defs></svg>